<?xml version="1.0" standalone="no"?>
<!DOCTYPE svg PUBLIC "-//W3C//DTD SVG 20010904//EN"
 "http://www.w3.org/TR/2001/REC-SVG-20010904/DTD/svg10.dtd">
<svg version="1.0" xmlns="http://www.w3.org/2000/svg"
 width="500.000000pt" height="500.000000pt" viewBox="0 0 500.000000 500.000000"
 preserveAspectRatio="xMidYMid meet">
<metadata>
Created by potrace 1.11, written by Peter Selinger 2001-2013
</metadata>
<g transform="translate(0.000000,500.000000) scale(0.100000,-0.100000)"
fill="#000000" stroke="none">
<path d="M2425 4454 c-135 -29 -241 -88 -328 -184 -201 -222 -194 -547 17
-762 218 -224 570 -225 791 -3 172 174 212 422 105 643 -73 151 -242 276 -407
301 -71 11 -139 13 -178 5z m260 -189 c258 -124 313 -458 109 -657 -35 -34
-84 -68 -119 -84 -53 -25 -72 -28 -165 -28 -96 0 -110 2 -165 29 -156 75 -255
239 -243 404 13 173 156 335 330 371 77 16 175 2 253 -35z"/>
<path d="M1057 3585 c-197 -43 -380 -228 -423 -427 -40 -186 15 -373 150 -511
218 -223 571 -224 791 -2 108 110 165 244 165 393 0 72 -30 192 -65 262 -41
81 -158 196 -242 238 -112 57 -253 74 -376 47z m194 -144 c78 -13 137 -43 205
-105 131 -119 169 -309 94 -471 -36 -77 -125 -165 -205 -201 -53 -25 -72 -28
-165 -28 -96 0 -110 2 -165 29 -187 90 -288 307 -226 487 29 84 47 114 108
174 98 98 217 137 354 115z"/>
<path d="M3717 3585 c-198 -43 -380 -227 -423 -427 -40 -186 15 -373 150 -511
218 -223 571 -224 791 -2 141 142 190 313 149 513 -21 102 -64 181 -147 268
-135 143 -327 202 -520 159z m194 -144 c78 -13 137 -43 205 -105 131 -119 169
-309 94 -471 -36 -77 -125 -165 -205 -201 -53 -25 -72 -28 -165 -28 -96 0
-110 2 -165 29 -187 90 -288 307 -226 487 29 84 47 114 108 174 98 98 217 137
354 115z"/>
<path d="M2160 3026 c-113 -57 -143 -201 -63 -297 65 -77 186 -92 260 -32 53
42 83 98 83 156 0 146 -151 239 -280 173z m168 -101 c69 -75 17 -185 -90 -185
-41 0 -108 66 -108 106 0 41 20 75 60 102 48 32 94 25 138 -23z"/>
<path d="M2690 3026 c-113 -57 -143 -201 -63 -297 65 -77 186 -92 260 -32 53
42 83 98 83 156 0 146 -151 239 -280 173z m168 -101 c69 -75 17 -185 -90 -185
-41 0 -108 66 -108 106 0 41 20 75 60 102 48 32 94 25 138 -23z"/>
<path d="M1945 2584 c-75 -41 -125 -115 -125 -184 0 -141 140 -238 268 -185
145 61 165 258 35 349 -52 36 -132 45 -178 20z m152 -108 c37 -40 42 -75 18
-132 -15 -37 -62 -64 -109 -64 -33 0 -93 53 -101 90 -9 42 11 95 48 125 45 37
100 29 144 -19z"/>
<path d="M2925 2584 c-75 -41 -125 -115 -125 -184 0 -141 140 -238 268 -185
145 61 165 258 35 349 -52 36 -132 45 -178 20z m152 -108 c37 -40 42 -75 18
-132 -15 -37 -62 -64 -109 -64 -33 0 -93 53 -101 90 -9 42 11 95 48 125 45 37
100 29 144 -19z"/>
<path d="M1095 2291 c-105 -26 -185 -73 -265 -157 -38 -40 -79 -93 -92 -116
-116 -220 -77 -480 99 -653 113 -111 241 -165 393 -165 156 0 282 54 399 169
216 213 216 557 0 771 -145 143 -341 199 -534 151z m210 -142 c127 -23 250
-120 301 -236 102 -230 -41 -501 -291 -553 -145 -30 -279 14 -383 124 -66 71
-95 133 -107 227 -28 223 163 438 396 448 14 1 52 -4 84 -10z"/>
<path d="M3702 2290 c-40 -11 -97 -32 -125 -47 -72 -38 -195 -164 -235 -239
-58 -111 -77 -262 -47 -379 91 -361 473 -537 805 -372 137 68 261 232 289 381
37 202 -21 380 -170 521 -144 136 -329 184 -517 135z m213 -141 c163 -30 296
-163 326 -324 14 -77 3 -174 -27 -242 -34 -78 -125 -169 -203 -205 -85 -39
-203 -49 -282 -23 -187 61 -310 236 -297 423 13 174 158 338 330 371 61 12 87
12 153 0z"/>
<path d="M2159 2165 c-112 -58 -142 -200 -62 -296 65 -77 186 -92 260 -32 53
42 83 98 83 156 0 147 -151 240 -281 172z m169 -100 c96 -104 -46 -248 -152
-154 -63 55 -57 129 14 177 48 32 94 25 138 -23z"/>
<path d="M2660 2166 c-113 -57 -143 -201 -63 -297 65 -77 186 -92 260 -32 53
42 83 98 83 156 0 146 -151 239 -280 173z m168 -101 c69 -75 17 -185 -90 -185
-41 0 -108 66 -108 106 0 41 20 75 60 102 48 32 94 25 138 -23z"/>
<path d="M2387 1486 c-200 -46 -380 -228 -423 -428 -40 -186 15 -373 150 -511
218 -223 571 -224 791 -2 140 142 190 313 149 512 -21 105 -62 181 -144 267
-72 75 -147 124 -237 152 -68 21 -215 26 -286 10z m194 -145 c127 -21 243
-111 299 -233 32 -68 35 -80 34 -173 -1 -90 -4 -107 -31 -165 -39 -83 -126
-169 -208 -206 -53 -25 -72 -28 -165 -28 -96 0 -110 2 -165 29 -187 90 -288
307 -226 487 29 84 47 114 108 174 98 98 217 137 354 115z"/>
</g>
</svg>
